<svg width="278" height="72" viewBox="0 0 278 72" fill="none" xmlns="http://www.w3.org/2000/svg">
<path d="M73.8185 16.1849C73.6232 16.1793 73.4287 16.2128 73.2466 16.2836C73.0645 16.3544 72.8985 16.4609 72.7583 16.5969C72.6182 16.733 72.5068 16.8957 72.4307 17.0755C72.3546 17.2554 72.3154 17.4486 72.3154 17.6438C72.3154 17.8391 72.3546 18.0323 72.4307 18.2121C72.5068 18.392 72.6182 18.5547 72.7583 18.6907C72.8985 18.8268 73.0645 18.9333 73.2466 19.0041C73.4287 19.0749 73.6232 19.1084 73.8185 19.1027C80.7617 19.1105 87.4183 21.87 92.3279 26.7758C97.2375 31.6816 99.9992 38.333 100.007 45.2708C100.007 45.6579 100.161 46.0291 100.435 46.3028C100.709 46.5765 101.08 46.7303 101.468 46.7303C101.855 46.7303 102.227 46.5765 102.5 46.3028C102.774 46.0291 102.928 45.6579 102.928 45.2708C102.92 37.559 99.8506 30.1655 94.3932 24.7125C88.9357 19.2596 81.5363 16.1927 73.8185 16.1849Z" fill="#FF7E31"/>
<path d="M83.7456 26.8708C83.472 27.1446 83.3184 27.5158 83.3184 27.9027C83.3184 28.2897 83.472 28.6609 83.7456 28.9347C88.6499 33.8462 91.4041 40.501 91.4041 47.4391C91.4041 54.3772 88.6499 61.0319 83.7456 65.9435C83.4763 66.2181 83.3262 66.5878 83.3282 66.9724C83.3301 67.3569 83.4839 67.7251 83.756 67.997C84.0281 68.2689 84.3966 68.4226 84.7815 68.4245C85.1663 68.4264 85.5363 68.2766 85.8112 68.0074C91.2631 62.5487 94.3251 55.1517 94.3251 47.4397C94.3251 39.7277 91.2631 32.3307 85.8112 26.872C85.5371 26.5986 85.1657 26.4451 84.7784 26.4451C84.3911 26.4451 84.0197 26.5986 83.7456 26.872" fill="#FF7E31"/>
<path d="M85.2642 41.4414C84.8769 41.4417 84.5056 41.5956 84.2317 41.8693C83.9579 42.1429 83.8039 42.5139 83.8036 42.9009C83.8036 57.3302 70.7327 69.069 56.2921 69.069C56.0968 69.0633 55.9023 69.0969 55.7203 69.1676C55.5382 69.2384 55.3721 69.3449 55.232 69.481C55.0918 69.617 54.9804 69.7797 54.9043 69.9596C54.8283 70.1394 54.7891 70.3326 54.7891 70.5279C54.7891 70.7231 54.8283 70.9163 54.9043 71.0962C54.9804 71.276 55.0918 71.4387 55.232 71.5748C55.3721 71.7108 55.5382 71.8173 55.7203 71.8881C55.9023 71.9589 56.0968 71.9924 56.2921 71.9868C72.3433 71.9868 86.7236 58.9384 86.7236 42.8997C86.7233 42.5127 86.5693 42.1417 86.2955 41.868C86.0216 41.5944 85.6503 41.4405 85.263 41.4402" fill="#FF7E31"/>
<path d="M76.4642 54.3434C76.4648 54.1517 76.4272 53.9617 76.3538 53.7846C76.2803 53.6074 76.1724 53.4466 76.0364 53.3114C75.7582 53.0459 75.3883 52.8977 75.0036 52.8977C74.6189 52.8977 74.249 53.0459 73.9708 53.3114C71.476 55.8265 68.4916 57.8036 65.2019 59.1207C61.9122 60.4378 58.3872 61.0669 54.8446 60.969C54.6531 60.9593 54.4618 60.9896 54.2827 61.058C54.1036 61.1263 53.9407 61.2311 53.8044 61.3658C53.5942 61.5646 53.4479 61.8213 53.3839 62.1034C53.3198 62.3854 53.3411 62.6801 53.4448 62.9501C53.5486 63.2201 53.7302 63.4532 53.9667 63.62C54.2032 63.7867 54.4839 63.8796 54.7733 63.8868C55.0069 63.8868 55.2405 63.8941 55.4729 63.8941C59.294 63.9032 63.079 63.1549 66.6087 61.6924C70.1385 60.23 73.3429 58.0825 76.0364 55.3742C76.1725 55.239 76.2804 55.0782 76.3539 54.901C76.4273 54.7239 76.4648 54.5339 76.4642 54.3422" fill="#FF7E31"/>
<path d="M35.1615 54.3472C35.1612 53.9602 35.0072 53.5892 34.7333 53.3155C34.4594 53.0419 34.0881 52.888 33.7008 52.8877H1.46066C1.07327 52.8877 0.701741 53.0415 0.427814 53.3152C0.153888 53.5889 0 53.9601 0 54.3472C0 54.7343 0.153888 55.1055 0.427814 55.3792C0.701741 55.653 1.07327 55.8067 1.46066 55.8067H33.7008C34.0881 55.8064 34.4594 55.6525 34.7333 55.3789C35.0072 55.1052 35.1612 54.7342 35.1615 54.3472Z" fill="#FF7E31"/>
<path d="M47.2829 52.8825H40.9337C40.5538 52.8936 40.1932 53.0521 39.9283 53.3245C39.6635 53.5969 39.5154 53.9617 39.5154 54.3414C39.5154 54.7212 39.6635 55.086 39.9283 55.3584C40.1932 55.6308 40.5538 55.7893 40.9337 55.8003H59.9911C60.3709 55.7893 60.7316 55.6308 60.9964 55.3584C61.2612 55.086 61.4093 54.7212 61.4093 54.3414C61.4093 53.9617 61.2612 53.5969 60.9964 53.3245C60.7316 53.0521 60.3709 52.8936 59.9911 52.8825C53.0479 52.8744 46.3915 50.1148 41.482 45.2091C36.5724 40.3034 33.8107 33.6522 33.8025 26.7145C33.8082 26.5194 33.7746 26.3251 33.7038 26.1431C33.633 25.9611 33.5263 25.7952 33.3902 25.6552C33.2541 25.5152 33.0912 25.4038 32.9112 25.3278C32.7313 25.2518 32.5379 25.2126 32.3425 25.2126C32.1471 25.2126 31.9537 25.2518 31.7737 25.3278C31.5938 25.4038 31.4309 25.5152 31.2948 25.6552C31.1586 25.7952 31.052 25.9611 30.9812 26.1431C30.9104 26.3251 30.8768 26.5194 30.8825 26.7145C30.863 32.1787 32.3931 37.5367 35.2954 42.1679C38.1977 46.7991 42.3535 50.514 47.2816 52.8825" fill="#FF7E31"/>
<path d="M49.0319 45.5434C49.3205 45.5431 49.6026 45.4574 49.8425 45.2971C50.0825 45.1368 50.2695 44.9091 50.38 44.6426C50.4905 44.3762 50.5195 44.083 50.4634 43.8001C50.4073 43.5173 50.2685 43.2573 50.0647 43.0531C47.6326 40.6232 45.7034 37.7383 44.3872 34.5633C43.0709 31.3883 42.3935 27.9854 42.3935 24.5488C42.3935 21.1121 43.0709 17.7092 44.3872 14.5342C45.7034 11.3592 47.6326 8.47435 50.0647 6.0444C50.2026 5.90938 50.3123 5.74838 50.3875 5.57072C50.4628 5.39307 50.502 5.20227 50.503 5.00936C50.504 4.81646 50.4667 4.62528 50.3932 4.44687C50.3198 4.26846 50.2117 4.10637 50.0752 3.96996C49.9387 3.83356 49.7765 3.72555 49.5979 3.65217C49.4194 3.5788 49.228 3.54152 49.035 3.5425C48.8419 3.54347 48.651 3.58268 48.4732 3.65785C48.2954 3.73302 48.1343 3.84266 47.9991 3.98044C42.5403 9.43528 39.4736 16.8334 39.4736 24.5475C39.4736 32.2616 42.5403 39.6598 47.9991 45.1146C48.1343 45.2507 48.2953 45.3586 48.4726 45.432C48.6499 45.5054 48.84 45.5428 49.0319 45.5422" fill="#FF7E31"/>
<path d="M48.5422 30.5454C48.9295 30.545 49.3008 30.3912 49.5747 30.1175C49.8485 29.8439 50.0025 29.4728 50.0028 29.0858C50.011 22.1481 52.7727 15.4969 57.6823 10.5912C62.5918 5.68552 69.2482 2.92593 76.1914 2.9178C76.5712 2.90678 76.9319 2.74825 77.1967 2.47585C77.4615 2.20346 77.6096 1.83865 77.6096 1.4589C77.6096 1.07914 77.4615 0.714342 77.1967 0.441947C76.9319 0.169552 76.5712 0.0110167 76.1914 0C68.474 0.00845541 61.0751 3.0756 55.6182 8.52846C50.1613 13.9813 47.0921 21.3745 47.084 29.0858C47.0843 29.4728 47.2383 29.8439 47.5121 30.1175C47.786 30.3912 48.1573 30.545 48.5446 30.5454" fill="#FF7E31"/>
<path d="M57.7756 19.1652C58.054 19.4305 58.4238 19.5785 58.8084 19.5785C59.1931 19.5785 59.5629 19.4305 59.8412 19.1652C64.7566 14.2648 71.4165 11.5127 78.3601 11.5127C85.3036 11.5127 91.9636 14.2648 96.8789 19.1652C97.0141 19.303 97.1752 19.4126 97.353 19.4878C97.5308 19.563 97.7217 19.6022 97.9148 19.6032C98.1078 19.6041 98.2992 19.5668 98.4777 19.4935C98.6563 19.4201 98.8185 19.3121 98.955 19.1757C99.0915 19.0393 99.1996 18.8772 99.273 18.6988C99.3464 18.5204 99.3838 18.3292 99.3828 18.1363C99.3818 17.9434 99.3426 17.7526 99.2673 17.5749C99.1921 17.3973 99.0824 17.2363 98.9445 17.1013C93.4815 11.6536 86.0787 8.59399 78.3607 8.59399C70.6426 8.59399 63.2399 11.6536 57.7769 17.1013C57.5033 17.3751 57.3496 17.7463 57.3496 18.1332C57.3496 18.5202 57.5033 18.8913 57.7769 19.1652" fill="#FF7E31"/>
<path d="M49.7887 62.4358C49.7884 62.0488 49.6344 61.6778 49.3605 61.4042C49.0867 61.1305 48.7153 60.9766 48.328 60.9763H19.6116C19.2318 60.9873 18.8711 61.1459 18.6063 61.4183C18.3415 61.6907 18.1934 62.0555 18.1934 62.4352C18.1934 62.815 18.3415 63.1798 18.6063 63.4522C18.8711 63.7246 19.2318 63.8831 19.6116 63.8941H48.328C48.7153 63.8938 49.0867 63.7399 49.3605 63.4663C49.6344 63.1927 49.7884 62.8216 49.7887 62.4346" fill="#FF7E31"/>
<path d="M50.9881 69.069H37.7648C37.5694 69.0633 37.375 69.0968 37.1929 69.1676C37.0108 69.2384 36.8448 69.3449 36.7046 69.481C36.5645 69.617 36.4531 69.7797 36.377 69.9596C36.3009 70.1394 36.2617 70.3326 36.2617 70.5279C36.2617 70.7231 36.3009 70.9163 36.377 71.0962C36.4531 71.276 36.5645 71.4387 36.7046 71.5748C36.8448 71.7108 37.0108 71.8173 37.1929 71.8881C37.375 71.9589 37.5694 71.9924 37.7648 71.9868H50.9893C51.1846 71.9924 51.3791 71.9589 51.5612 71.8881C51.7433 71.8173 51.9093 71.7108 52.0495 71.5748C52.1896 71.4387 52.301 71.276 52.3771 71.0962C52.4532 70.9163 52.4924 70.7231 52.4924 70.5279C52.4924 70.3326 52.4532 70.1394 52.3771 69.9596C52.301 69.7797 52.1896 69.617 52.0495 69.481C51.9093 69.3449 51.7433 69.2384 51.5612 69.1676C51.3791 69.0968 51.1846 69.0633 50.9893 69.069" fill="#FF7E31"/>
<path d="M126.929 44.4127V27.6147H129.33V42.3254H138.428V44.4139L126.929 44.4127Z" fill="white" fill-opacity="0.8"/>
<path d="M151.952 44.6031C151 44.6562 150.048 44.5156 149.152 44.1897C148.256 43.8639 147.435 43.3596 146.74 42.7075C146.069 41.9576 145.554 41.0806 145.229 40.1283C144.903 39.1761 144.772 38.1681 144.843 37.1642V27.6135H147.244V37.0733C147.116 38.5489 147.559 40.0174 148.481 41.1767C149.458 42.0116 150.7 42.4705 151.985 42.4705C153.271 42.4705 154.513 42.0116 155.49 41.1767C156.412 40.0174 156.855 38.5489 156.726 37.0733V27.6135H159.056V37.1642C159.128 38.1671 158.998 39.1741 158.674 40.1261C158.351 41.078 157.84 41.9557 157.172 42.7075C156.475 43.3614 155.653 43.8667 154.755 44.1926C153.857 44.5185 152.902 44.6582 151.949 44.6031" fill="white" fill-opacity="0.8"/>
<path d="M167.874 44.4114H165.471V27.6135H177.334V29.7021H167.867L167.874 44.4114ZM167.628 35.5561H176.298V37.62H167.635L167.628 35.5561Z" fill="white" fill-opacity="0.8"/>
<path d="M187.451 44.4127V29.7021H181.688V27.6135H195.593V29.7021H189.829V44.4127H187.451Z" fill="white" fill-opacity="0.8"/>
<path d="M126.929 44.424V27.5007H129.347V42.3158H138.514V44.4178L126.929 44.424Z" fill="white" fill-opacity="0.8"/>
<path d="M151.953 44.6168C150.994 44.6702 150.035 44.5285 149.133 44.2004C148.23 43.8722 147.404 43.3644 146.704 42.7077C146.028 41.9525 145.51 41.0692 145.182 40.1102C144.853 39.1512 144.721 38.1361 144.794 37.1251V27.502H147.212V37.0244C147.083 38.5105 147.528 39.9896 148.457 41.1572C149.441 41.9996 150.694 42.4626 151.989 42.4626C153.285 42.4626 154.537 41.9996 155.521 41.1572C156.45 39.9895 156.896 38.5105 156.766 37.0244V27.502H159.112V37.1215C159.185 38.1315 159.054 39.1457 158.728 40.1044C158.402 41.0631 157.887 41.947 157.214 42.704C156.513 43.3626 155.685 43.8716 154.78 44.1998C153.876 44.5281 152.914 44.6687 151.953 44.6131" fill="white" fill-opacity="0.8"/>
<path d="M167.849 44.424H165.431V27.502H177.38V29.6052H167.85L167.849 44.424ZM167.603 35.5059H176.333V37.5846H167.603V35.5059Z" fill="white" fill-opacity="0.8"/>
<path d="M187.443 44.424V29.6077H181.639V27.5007H195.643V29.604H189.838V44.419L187.443 44.424Z" fill="white" fill-opacity="0.8"/>
<path d="M201.856 44.4238V44.5739L202.006 44.5738L209.354 44.5689C211.012 44.6875 212.665 44.273 214.071 43.386L214.071 43.3864L214.082 43.3788C214.606 42.9828 215.025 42.4648 215.303 41.8699C215.58 41.2768 215.708 40.6253 215.677 39.9716C215.706 39.0981 215.47 38.2362 215 37.4989L215.001 37.4989L214.997 37.4933C214.506 36.7952 213.815 36.2622 213.016 35.9647L213.015 35.9643C212.714 35.8548 212.408 35.7624 212.098 35.6872C212.117 35.6803 212.136 35.6734 212.155 35.6664C212.947 35.3869 213.628 34.8597 214.097 34.1629C214.564 33.468 214.796 32.6413 214.757 31.805C214.794 31.1606 214.667 30.5174 214.389 29.9349C214.109 29.35 213.686 28.8454 213.159 28.4683L213.159 28.468L213.151 28.4634C211.874 27.6589 210.379 27.2706 208.871 27.3518H202.006H201.856V27.5018V44.4238ZM202.978 43.5489V36.3315H209.408V36.3318L209.417 36.3312C210.758 36.2466 212.095 36.5528 213.265 37.2123C213.666 37.5426 213.99 37.9572 214.212 38.4265C214.436 38.8996 214.553 39.4167 214.553 39.9402C214.553 40.4637 214.436 40.9808 214.212 41.4539C213.99 41.9232 213.666 42.3377 213.265 42.6681C212.095 43.3276 210.758 43.6338 209.417 43.5492L209.417 43.5489H209.408H202.978ZM208.9 35.33H202.978V28.3791H208.9V28.3793L208.908 28.3788C210.146 28.3066 211.375 28.6181 212.429 29.2705C212.812 29.5818 213.121 29.9744 213.334 30.4198C213.548 30.868 213.66 31.3584 213.66 31.8551C213.66 32.3518 213.548 32.8423 213.334 33.2905C213.121 33.7359 212.812 34.1284 212.429 34.4397C211.375 35.0919 210.146 35.4029 208.909 35.3302L208.909 35.33H208.9Z" fill="white" fill-opacity="0.8" stroke="white" stroke-width="0.3"/>
<mask id="path-21-outside-1_34_840" maskUnits="userSpaceOnUse" x="220.458" y="26.4102" width="19" height="19" fill="black">
<rect fill="white" x="220.458" y="26.4102" width="19" height="19"/>
<path d="M230.196 44.5209C229.013 44.5318 227.838 44.3145 226.737 43.8808C225.699 43.4711 224.754 42.8588 223.955 42.0797C223.163 41.3072 222.536 40.3823 222.111 39.361C221.24 37.1807 221.24 34.7498 222.111 32.5696C222.536 31.5483 223.163 30.6235 223.955 29.8508C224.754 29.0724 225.7 28.4605 226.737 28.051C228.972 27.1965 231.444 27.1965 233.679 28.051C234.714 28.4588 235.656 29.071 236.448 29.8508C237.235 30.6279 237.861 31.5515 238.292 32.5696C239.18 34.7465 239.18 37.184 238.292 39.361C237.862 40.3791 237.235 41.3028 236.448 42.0797C235.656 42.8602 234.714 43.4727 233.679 43.8808C232.57 44.3159 231.388 44.5332 230.196 44.5209ZM230.196 43.7715C231.272 43.7815 232.34 43.5846 233.341 43.1916C234.282 42.8214 235.138 42.2658 235.859 41.5579C236.58 40.8499 237.151 40.0042 237.537 39.071C238.328 37.0759 238.328 34.8547 237.537 32.8595C237.151 31.9263 236.58 31.0805 235.859 30.3726C235.138 29.6646 234.282 29.1091 233.341 28.739C231.323 27.9641 229.089 27.9641 227.071 28.739C226.13 29.1089 225.274 29.6644 224.553 30.3724C223.832 31.0803 223.261 31.9262 222.874 32.8595C222.084 34.8548 222.084 37.0758 222.874 39.071C223.261 40.0043 223.832 40.8501 224.553 41.5581C225.274 42.2661 226.13 42.8216 227.071 43.1916C228.064 43.5832 229.123 43.7801 230.191 43.7715"/>
</mask>
<path d="M230.196 44.5209C229.013 44.5318 227.838 44.3145 226.737 43.8808C225.699 43.4711 224.754 42.8588 223.955 42.0797C223.163 41.3072 222.536 40.3823 222.111 39.361C221.24 37.1807 221.24 34.7498 222.111 32.5696C222.536 31.5483 223.163 30.6235 223.955 29.8508C224.754 29.0724 225.7 28.4605 226.737 28.051C228.972 27.1965 231.444 27.1965 233.679 28.051C234.714 28.4588 235.656 29.071 236.448 29.8508C237.235 30.6279 237.861 31.5515 238.292 32.5696C239.18 34.7465 239.18 37.184 238.292 39.361C237.862 40.3791 237.235 41.3028 236.448 42.0797C235.656 42.8602 234.714 43.4727 233.679 43.8808C232.57 44.3159 231.388 44.5332 230.196 44.5209ZM230.196 43.7715C231.272 43.7815 232.34 43.5846 233.341 43.1916C234.282 42.8214 235.138 42.2658 235.859 41.5579C236.58 40.8499 237.151 40.0042 237.537 39.071C238.328 37.0759 238.328 34.8547 237.537 32.8595C237.151 31.9263 236.58 31.0805 235.859 30.3726C235.138 29.6646 234.282 29.1091 233.341 28.739C231.323 27.9641 229.089 27.9641 227.071 28.739C226.13 29.1089 225.274 29.6644 224.553 30.3724C223.832 31.0803 223.261 31.9262 222.874 32.8595C222.084 34.8548 222.084 37.0758 222.874 39.071C223.261 40.0043 223.832 40.8501 224.553 41.5581C225.274 42.2661 226.13 42.8216 227.071 43.1916C228.064 43.5832 229.123 43.7801 230.191 43.7715" fill="white" fill-opacity="0.8"/>
<path d="M226.737 43.8808L226.627 44.1598L226.627 44.1599L226.737 43.8808ZM223.955 42.0797L224.165 41.865L224.165 41.865L223.955 42.0797ZM222.111 39.361L221.832 39.4722L221.834 39.4762L222.111 39.361ZM222.111 32.5696L221.834 32.4543L221.832 32.4583L222.111 32.5696ZM223.955 29.8508L223.746 29.6359L223.746 29.6361L223.955 29.8508ZM226.737 28.051L226.63 27.7707L226.627 27.7719L226.737 28.051ZM233.679 28.051L233.789 27.7719L233.786 27.7708L233.679 28.051ZM236.448 29.8508L236.659 29.6374L236.659 29.637L236.448 29.8508ZM238.292 32.5696L238.57 32.4563L238.569 32.4526L238.292 32.5696ZM238.292 39.361L238.569 39.4779L238.57 39.4742L238.292 39.361ZM236.448 42.0797L236.659 42.2935L236.659 42.2932L236.448 42.0797ZM233.679 43.8808L233.789 44.1601L233.789 44.1599L233.679 43.8808ZM233.341 43.1916L233.451 43.4709L233.451 43.4707L233.341 43.1916ZM237.537 39.071L237.815 39.1859L237.816 39.1815L237.537 39.071ZM237.537 32.8595L237.816 32.749L237.815 32.7447L237.537 32.8595ZM233.341 28.739L233.451 28.4598L233.449 28.4589L233.341 28.739ZM227.071 28.739L226.963 28.4589L226.961 28.4598L227.071 28.739ZM222.874 32.8595L222.597 32.7447L222.595 32.7491L222.874 32.8595ZM222.874 39.071L222.595 39.1815L222.597 39.1859L222.874 39.071ZM227.071 43.1916L227.181 42.9125L227.18 42.9124L227.071 43.1916ZM230.193 44.2209C229.049 44.2315 227.912 44.0212 226.847 43.6017L226.627 44.1599C227.764 44.6077 228.977 44.8321 230.199 44.8208L230.193 44.2209ZM226.848 43.6017C225.847 43.2066 224.935 42.6162 224.165 41.865L223.746 42.2945C224.573 43.1014 225.552 43.7355 226.627 44.1598L226.848 43.6017ZM224.165 41.865C223.401 41.1207 222.797 40.2297 222.388 39.2458L221.834 39.4762C222.274 40.5349 222.924 41.4936 223.746 42.2945L224.165 41.865ZM222.389 39.2497C221.548 37.1409 221.548 34.7896 222.389 32.6808L221.832 32.4583C220.933 34.71 220.933 37.2205 221.832 39.4722L222.389 39.2497ZM222.388 32.6848C222.797 31.701 223.402 30.81 224.165 30.0655L223.746 29.6361C222.925 30.4371 222.274 31.3957 221.834 32.4543L222.388 32.6848ZM224.164 30.0656C224.935 29.315 225.847 28.725 226.848 28.33L226.627 27.7719C225.553 28.1961 224.573 28.8297 223.746 29.6359L224.164 30.0656ZM226.845 28.3312C229.011 27.5031 231.406 27.5031 233.572 28.3312L233.786 27.7708C231.482 26.89 228.934 26.89 226.63 27.7708L226.845 28.3312ZM233.569 28.3301C234.566 28.7232 235.474 29.3131 236.238 30.0646L236.659 29.637C235.837 28.8289 234.861 28.1945 233.789 27.7719L233.569 28.3301ZM236.237 30.0642C236.996 30.8137 237.6 31.7046 238.016 32.6865L238.569 32.4526C238.122 31.3984 237.474 30.442 236.659 29.6374L236.237 30.0642ZM238.015 32.6828C238.872 34.7872 238.872 37.1434 238.015 39.2477L238.57 39.4742C239.487 37.2246 239.487 34.7059 238.57 32.4563L238.015 32.6828ZM238.016 39.2441C237.601 40.226 236.996 41.1169 236.237 41.8663L236.659 42.2932C237.474 41.4887 238.123 40.5322 238.569 39.4779L238.016 39.2441ZM236.238 41.866C235.474 42.6181 234.566 43.2085 233.569 43.6017L233.789 44.1599C234.862 43.737 235.838 43.1022 236.659 42.2935L236.238 41.866ZM233.57 43.6015C232.496 44.0225 231.352 44.2328 230.199 44.2209L230.193 44.8208C231.423 44.8336 232.644 44.6092 233.789 44.1601L233.57 43.6015ZM230.193 44.0714C231.308 44.0818 232.413 43.8779 233.451 43.4709L233.232 42.9123C232.266 43.2913 231.236 43.4811 230.199 43.4715L230.193 44.0714ZM233.451 43.4707C234.429 43.0858 235.319 42.5081 236.069 41.7719L235.649 41.3438C234.956 42.0235 234.134 42.557 233.231 42.9124L233.451 43.4707ZM236.069 41.7719C236.819 41.0358 237.412 40.1563 237.815 39.1859L237.26 38.9562C236.889 39.8521 236.341 40.6641 235.649 41.3438L236.069 41.7719ZM237.816 39.1815C238.635 37.1154 238.635 34.8152 237.816 32.749L237.259 32.97C238.021 34.8942 238.021 37.0363 237.259 38.9605L237.816 39.1815ZM237.815 32.7447C237.412 31.7742 236.819 30.8947 236.069 30.1585L235.649 30.5866C236.341 31.2664 236.889 32.0784 237.26 32.9744L237.815 32.7447ZM236.069 30.1585C235.319 29.4224 234.429 28.8446 233.451 28.4598L233.231 29.0181C234.134 29.3735 234.957 29.9069 235.649 30.5866L236.069 30.1585ZM233.449 28.4589C231.361 27.6575 229.051 27.6575 226.963 28.4589L227.178 29.019C229.127 28.2708 231.285 28.2708 233.234 29.019L233.449 28.4589ZM226.961 28.4598C225.983 28.8444 225.092 29.4221 224.342 30.1583L224.763 30.5864C225.455 29.9067 226.277 29.3733 227.18 29.0181L226.961 28.4598ZM224.342 30.1583C223.593 30.8945 222.999 31.7742 222.597 32.7447L223.151 32.9743C223.523 32.0783 224.071 31.2661 224.763 30.5864L224.342 30.1583ZM222.595 32.7491C221.777 34.8153 221.777 37.1153 222.595 39.1815L223.153 38.9606C222.391 37.0363 222.391 34.8943 223.153 32.9699L222.595 32.7491ZM222.597 39.1859C222.999 40.1564 223.593 41.036 224.343 41.7722L224.763 41.3441C224.071 40.6643 223.523 39.8522 223.151 38.9562L222.597 39.1859ZM224.343 41.7722C225.092 42.5084 225.983 43.0861 226.961 43.4708L227.18 42.9124C226.277 42.5572 225.455 42.0238 224.763 41.3441L224.343 41.7722ZM226.961 43.4707C227.99 43.8764 229.087 44.0804 230.194 44.0715L230.189 43.4715C229.159 43.4798 228.138 43.29 227.181 42.9125L226.961 43.4707Z" fill="white" mask="url(#path-21-outside-1_34_840)"/>
<path d="M244.393 44.4239V44.5748L244.544 44.5739L245.371 44.569L245.52 44.5681V44.419V38.8894H250.418C251.016 38.9045 251.611 38.8597 252.197 38.7566L256.321 44.5113L256.366 44.5739H256.443H257.41H257.703L257.531 44.3362L253.315 38.4845C253.578 38.4022 253.838 38.3076 254.094 38.2009L254.094 38.2007C255.068 37.79 255.897 37.0967 256.472 36.2104L256.472 36.2105L256.474 36.2065C257.04 35.2739 257.325 34.198 257.294 33.1078C257.326 32.0212 257.041 30.9487 256.474 30.0208L256.474 30.0208L256.472 30.0166C255.893 29.1365 255.065 28.4483 254.094 28.0393L254.094 28.0392C252.931 27.5535 251.678 27.3188 250.418 27.3507H244.543H244.393V27.5007V44.4239ZM250.463 37.8388H245.516V28.3988H250.463V28.3992L250.473 28.3985C251.994 28.2959 253.502 28.733 254.732 29.6325C255.192 30.0859 255.558 30.6261 255.808 31.2217C256.06 31.8207 256.189 32.4637 256.189 33.1133C256.189 33.7628 256.06 34.4059 255.808 35.0048C255.558 35.6006 255.192 36.1408 254.731 36.5943C253.505 37.5012 251.996 37.9425 250.473 37.8391L250.473 37.8388H250.463Z" fill="white" fill-opacity="0.8" stroke="white" stroke-width="0.3"/>
<path d="M263.258 44.2777V44.4277H263.408H264.231H264.381V44.2777V29.2896L276.135 44.3699L276.18 44.4277H276.253H276.93H277.08V44.2777V27.3594V27.2094H276.93H276.108H275.958V27.3594V42.3475L264.204 27.2672L264.159 27.2094H264.086H263.408H263.258V27.3594V44.2777Z" fill="white" fill-opacity="0.8" stroke="white" stroke-width="0.3"/>
</svg>
